# xmcd
#
# Track frame offsets: 
#        180
#        19454
#        31587
#        43570
#        63586
#        76896
#        99719
#        112398
#        133195
#        143577
#        167773
#        179155
#        191597
#        216553
#        231232
#        249208
#
# Disc length: 3502 seconds
#
# Revision: 0
# Processed by: cddbd v1.5.2PL0 Copyright (c) Steve Scherf et al.
# Submitted via: ExactAudioCopyFreeDBPlugin 1.0
#
DISCID=ec0dac10
DTITLE=Karl Thurmond - Subject to Change
DYEAR=1995
DGENRE=Acoustic
TTITLE0=Hometown
TTITLE1=The Train
TTITLE2=Get Outta My Way
TTITLE3=Last Night
TTITLE4=War of Words
TTITLE5=Love Song
TTITLE6=Palo Duro Bound
TTITLE7=Um Hum, Uh Huh, Oh Yea
TTITLE8=Rock-A-Billy Roll
TTITLE9=Sybil
TTITLE10=Dirty Underwear
TTITLE11=Wine and Wild Women
TTITLE12=Changes
TTITLE13=Sugar Bear
TTITLE14=Hard Way [Murphy's Law]
TTITLE15=Devil's Slide
EXTD=
EXTT0=
EXTT1=
EXTT2=
EXTT3=
EXTT4=
EXTT5=
EXTT6=
EXTT7=
EXTT8=
EXTT9=
EXTT10=
EXTT11=
EXTT12=
EXTT13=
EXTT14=
EXTT15=
PLAYORDER=
